<svg height="464pt" viewBox="0 0 464 464" width="464pt" xmlns="http://www.w3.org/2000/svg"><path d="m240 304v152c0 4.417969-3.582031 8-8 8h-208c-4.417969 0-8-3.582031-8-8v-152zm0 0" fill="#00ccb3"/><path d="m48 384h48v80h-48zm0 0" fill="#c49a6c"/><path d="m128 384h80v48h-80zm0 0" fill="#e6e7e8"/><path d="m464 96c0 53.019531-42.980469 96-96 96s-96-42.980469-96-96 42.980469-96 96-96 96 42.980469 96 96zm0 0" fill="#ff6243"/><path d="m440 96c0 39.765625-32.234375 72-72 72s-72-32.234375-72-72 32.234375-72 72-72 72 32.234375 72 72zm0 0" fill="#ffd422"/><path d="m0 320c.015625 8.484375 3.378906 16.621094 9.359375 22.640625 1.996094 1.945313 4.226563 3.640625 6.640625 5.039063 9.890625 5.742187 22.097656 5.757812 32.003906.042968 9.910156-5.714844 16.007813-16.285156 15.996094-27.722656 0 17.671875 14.328125 32 32 32s32-14.328125 32-32c0 17.671875 14.328125 32 32 32s32-14.328125 32-32c0 17.671875 14.328125 32 32 32s32-14.328125 32-32v-24h-256zm0 0" fill="#ff6243"/><path d="m234 240h-212c-3.566406.046875-6.683594 2.417969-7.679688 5.839844l-14.320312 50.160156h256l-14.320312-50.160156c-.996094-3.421875-4.113282-5.792969-7.679688-5.839844zm0 0" fill="#ff7956"/><path d="m240 347.679688v16c-9.890625 5.746093-22.101562 5.765624-32.011719.050781-9.90625-5.714844-16.007812-16.292969-15.988281-27.730469 0 17.671875-14.328125 32-32 32s-32-14.328125-32-32c0 17.671875-14.328125 32-32 32s-32-14.328125-32-32c.019531 11.4375-6.082031 22.015625-15.988281 27.730469-9.910157 5.714843-22.121094 5.695312-32.011719-.050781v-16c9.890625 5.742187 22.097656 5.757812 32.003906.042968 9.910156-5.714844 16.007813-16.285156 15.996094-27.722656 0 17.671875 14.328125 32 32 32s32-14.328125 32-32c0 17.671875 14.328125 32 32 32s32-14.328125 32-32c-.019531 11.4375 6.082031 22.015625 15.988281 27.730469 9.910157 5.714843 22.121094 5.695312 32.011719-.050781zm0 0" fill="#00b39d"/><path d="m208 240v40c0 4.417969-3.582031 8-8 8h-144c-4.417969 0-8-3.582031-8-8v-64c0-4.417969 3.582031-8 8-8h144c4.417969 0 8 3.582031 8 8zm0 0" fill="#ffa733"/><path d="m48 384h48v16h-48zm0 0" fill="#a97c50"/><path d="m128 384h80v16h-80zm0 0" fill="#d1d3d4"/><path d="m368 72c4.417969 0 8 3.582031 8 8h16c-.042969-10.132812-6.445312-19.148438-16-22.527344v-9.472656h-16v9.472656c-11.011719 3.878906-17.621094 15.132813-15.644531 26.640625 1.980469 11.507813 11.96875 19.910157 23.644531 19.886719 4.417969 0 8 3.582031 8 8s-3.582031 8-8 8-8-3.582031-8-8h-16c.042969 10.132812 6.445312 19.148438 16 22.527344v9.472656h16v-9.472656c11.011719-3.878906 17.621094-15.132813 15.644531-26.640625-1.980469-11.507813-11.96875-19.910157-23.644531-19.886719-4.417969 0-8-3.582031-8-8s3.582031-8 8-8zm0 0" fill="#ff6243"/><path d="m408 88h16v16h-16zm0 0" fill="#ff6243"/><path d="m312 88h16v16h-16zm0 0" fill="#ff6243"/><g fill="#ffa733"><path d="m265.167969 413.015625-2.863281-15.742187c79.816406-14.5625 137.78125-84.140626 137.695312-165.273438 0-7.664062-.515625-15.324219-1.542969-22.921875l15.847657-2.15625c1.128906 8.308594 1.695312 16.691406 1.695312 25.078125.09375 88.867188-63.40625 165.074219-150.832031 181.015625zm0 0"/><path d="m70.335938 186.113281-15.382813-4.359375c22.660156-79.027344 94.835937-133.550781 177.046875-133.753906 8.292969 0 16.578125.554688 24.800781 1.65625l-2.136719 15.855469c-82.875-11.183594-161.386718 40.183593-184.328124 120.601562zm0 0"/><path d="m289.144531 448.648438-4.074219-15.480469c105.429688-27.949219 171.449219-132.492188 151.371094-239.695313l15.726563-2.945312c21.617187 115.453125-49.484375 228.03125-163.023438 258.121094zm0 0"/><path d="m26.160156 201.910156-15.832031-2.292968c8.875-60.347657 41.949219-114.476563 91.601563-149.90625 49.648437-35.429688 111.589843-49.109376 171.542968-37.878907l-2.945312 15.726563c-55.667969-10.425782-113.1875 2.269531-159.292969 35.167968-46.105469 32.894532-76.824219 83.152344-85.074219 139.183594zm0 0"/></g></svg>