<?xml version="1.0" encoding="iso-8859-1"?>
<!-- Generator: Adobe Illustrator 19.0.0, SVG Export Plug-In . SVG Version: 6.00 Build 0)  -->
<svg version="1.1" id="Capa_1" xmlns="http://www.w3.org/2000/svg" xmlns:xlink="http://www.w3.org/1999/xlink" x="0px" y="0px"
	 viewBox="0 0 490.682 490.682" style="enable-background:new 0 0 490.682 490.682;" xml:space="preserve">
<path style="fill:#FFA000;" d="M468.808,148.392L309.874,32.744c-38.462-27.99-90.584-27.99-129.045,0L21.874,148.413
	c-11.147,8.25-18.694,20.472-21.077,34.133c-0.705,4.154,1.1,8.333,4.608,10.667L185.458,313.32
	c36.263,24.171,83.502,24.171,119.765,0l180.032-120.107c3.508-2.334,5.313-6.513,4.608-10.667
	C487.484,168.883,479.946,156.656,468.808,148.392z"/>
<path style="fill:#4CAF50;" d="M74.674,52.371h341.333c5.891,0,10.667,4.776,10.667,10.667v213.333
	c0,5.891-4.776,10.667-10.667,10.667H74.674c-5.891,0-10.667-4.776-10.667-10.667V63.037C64.008,57.146,68.783,52.371,74.674,52.371
	z"/>
<g>
	<path style="fill:#FAFAFA;" d="M245.341,223.037c-28.672,0-51.051-12.331-53.205-29.312c-0.788-5.838,3.306-11.209,9.144-11.997
		c5.838-0.788,11.209,3.306,11.997,9.144c0.007,0.055,0.014,0.11,0.021,0.165c0.405,3.093,12.096,10.667,32,10.667
		c21.739,0,32-8.533,32-10.667c0,0-0.363-6.699-31.147-10.496l-2.261-0.299c-15.573-1.899-51.925-6.4-51.925-32
		c0-18.24,22.933-32,53.333-32c28.672,0,51.051,12.331,53.205,29.291c0.742,5.844-3.393,11.183-9.237,11.925
		c-5.828,0.671-11.129-3.428-11.947-9.237c-0.405-3.093-12.096-10.667-32-10.667c-20.693,0-32,8-32,10.667
		c0,0,0.363,6.699,31.253,10.475l2.133,0.277c15.616,1.941,51.861,6.4,51.861,32C298.674,209.277,275.741,223.037,245.341,223.037z"
		/>
	<path style="fill:#FAFAFA;" d="M245.341,244.371c-5.891,0-10.667-4.776-10.667-10.667v-128c0-5.891,4.776-10.667,10.667-10.667
		s10.667,4.776,10.667,10.667v128C256.008,239.595,251.232,244.371,245.341,244.371z"/>
	<path style="fill:#FAFAFA;" d="M373.341,116.371h-42.667c-5.891,0-10.667-4.776-10.667-10.667c0-5.891,4.776-10.667,10.667-10.667
		h42.667c5.891,0,10.667,4.776,10.667,10.667C384.008,111.595,379.232,116.371,373.341,116.371z"/>
	<path style="fill:#FAFAFA;" d="M160.008,244.371h-42.667c-5.891,0-10.667-4.776-10.667-10.667c0-5.891,4.776-10.667,10.667-10.667
		h42.667c5.891,0,10.667,4.776,10.667,10.667C170.674,239.595,165.899,244.371,160.008,244.371z"/>
</g>
<path style="fill:#FFC107;" d="M489.842,182.355c-1.083-5.791-6.655-9.607-12.446-8.524c-1.415,0.265-2.762,0.813-3.96,1.612
	L293.426,295.528c-29.023,19.697-67.126,19.697-96.149,0L17.245,175.443c-4.9-3.27-11.523-1.948-14.793,2.952
	c-0.799,1.198-1.347,2.544-1.612,3.96c-0.568,3.182-0.847,6.41-0.832,9.643v233.6c-0.488,28.908,22.507,52.761,51.413,53.333h387.84
	c28.907-0.572,51.901-24.425,51.413-53.333v-233.6C490.689,188.765,490.41,185.537,489.842,182.355z"/>
<g>
</g>
<g>
</g>
<g>
</g>
<g>
</g>
<g>
</g>
<g>
</g>
<g>
</g>
<g>
</g>
<g>
</g>
<g>
</g>
<g>
</g>
<g>
</g>
<g>
</g>
<g>
</g>
<g>
</g>
</svg>
